<svg version="1.1"
     baseProfile="full"
     width="300" height="200"
     xmlns="http://www.w3.org/2000/svg">
  <symbol viewBox="0 0 512 512" id="arrow-back-sharp">
    <title>Arrow Back</title>
    <path fill="none" stroke="currentColor" stroke-linecap="square" stroke-miterlimit="10" stroke-width="48" d="M244 400L100 256l144-144M120 256h292"></path>
  </symbol>
  <symbol xmlns="http://www.w3.org/2000/svg" viewBox="0 0 512 512" id="arrow-forward-sharp">
    <title>Arrow Forward</title>
    <path fill="none" stroke="currentColor" stroke-linecap="square" stroke-miterlimit="10" stroke-width="48" d="M268 112l144 144-144 144m124-144H100"></path>
  </symbol>
  <symbol xmlns="http://www.w3.org/2000/svg" viewBox="0 0 512 512" id="folder">
    <title>Folder</title>
    <path fill="currentColor" d="M496 152a56 56 0 00-56-56H220.11a23.89 23.89 0 01-13.31-4L179 73.41A55.77 55.77 0 00147.89 64H72a56 56 0 00-56 56v48a8 8 0 008 8h464a8 8 0 008-8zM16 392a56 56 0 0056 56h368a56 56 0 0056-56V216a8 8 0 00-8-8H24a8 8 0 00-8 8z"></path>
  </symbol>
  <symbol xmlns="http://www.w3.org/2000/svg" viewBox="0 0 512 512" id="link-outline">
    <title>Link</title>
    <path d="M208 352h-64a96 96 0 010-192h64m96 0h64a96 96 0 010 192h-64m-140.71-96h187.42" fill="none" stroke="currentColor" stroke-linecap="round" stroke-linejoin="round" stroke-width="36"></path>
  </symbol>
  <symbol xmlns="http://www.w3.org/2000/svg" viewBox="0 0 512 512" id="logo-instagram">
    <title>ionicons-v5_logos</title>
    <path stroke="currentColor" fill="currentColor" d="M349.33 69.33a93.62 93.62 0 0193.34 93.34v186.66a93.62 93.62 0 01-93.34 93.34H162.67a93.62 93.62 0 01-93.34-93.34V162.67a93.62 93.62 0 0193.34-93.34h186.66m0-37.33H162.67C90.8 32 32 90.8 32 162.67v186.66C32 421.2 90.8 480 162.67 480h186.66C421.2 480 480 421.2 480 349.33V162.67C480 90.8 421.2 32 349.33 32z"></path>
    <path stroke="currentColor"  fill="currentColor" d="M377.33 162.67a28 28 0 1128-28 27.94 27.94 0 01-28 28zM256 181.33A74.67 74.67 0 11181.33 256 74.75 74.75 0 01256 181.33m0-37.33a112 112 0 10112 112 112 112 0 00-112-112z"></path>
  </symbol>
  <symbol xmlns="http://www.w3.org/2000/svg" viewBox="0 0 512 512" id="logo-twitter">
    <title>Logo Twitter</title>
    <path d="M496 109.5a201.8 201.8 0 01-56.55 15.3 97.51 97.51 0 0043.33-53.6 197.74 197.74 0 01-62.56 23.5A99.14 99.14 0 00348.31 64c-54.42 0-98.46 43.4-98.46 96.9a93.21 93.21 0 002.54 22.1 280.7 280.7 0 01-203-101.3A95.69 95.69 0 0036 130.4c0 33.6 17.53 63.3 44 80.7A97.5 97.5 0 0135.22 199v1.2c0 47 34 86.1 79 95a100.76 100.76 0 01-25.94 3.4 94.38 94.38 0 01-18.51-1.8c12.51 38.5 48.92 66.5 92.05 67.3A199.59 199.59 0 0139.5 405.6a203 203 0 01-23.5-1.4A278.68 278.68 0 00166.74 448c181.36 0 280.44-147.7 280.44-275.8 0-4.2-.11-8.4-.31-12.5A198.48 198.48 0 00496 109.5z"></path>
  </symbol>
  <symbol xmlns="http://www.w3.org/2000/svg" viewBox="0 0 512 512" id="logo-youtube">
    <title>Logo Youtube</title>
    <path d="M508.64 148.79c0-45-33.1-81.2-74-81.2C379.24 65 322.74 64 265 64h-18c-57.6 0-114.2 1-169.6 3.6C36.6 67.6 3.5 104 3.5 149 1 184.59-.06 220.19 0 255.79q-.15 53.4 3.4 106.9c0 45 33.1 81.5 73.9 81.5 58.2 2.7 117.9 3.9 178.6 3.8q91.2.3 178.6-3.8c40.9 0 74-36.5 74-81.5 2.4-35.7 3.5-71.3 3.4-107q.34-53.4-3.26-106.9zM207 353.89v-196.5l145 98.2z"></path>
  </symbol>
  <symbol xmlns="http://www.w3.org/2000/svg" viewBox="0 0 512 512" id="logo-tiktok">
    <title>Logo Tiktok</title>
    <path d="M412.19 118.66a109.27 109.27 0 01-9.45-5.5 132.87 132.87 0 01-24.27-20.62c-18.1-20.71-24.86-41.72-27.35-56.43h.1C349.14 23.9 350 16 350.13 16h-82.44v318.78c0 4.28 0 8.51-.18 12.69 0 .52-.05 1-.08 1.56 0 .23 0 .47-.05.71v.18a70 70 0 01-35.22 55.56 68.8 68.8 0 01-34.11 9c-38.41 0-69.54-31.32-69.54-70s31.13-70 69.54-70a68.9 68.9 0 0121.41 3.39l.1-83.94a153.14 153.14 0 00-118 34.52 161.79 161.79 0 00-35.3 43.53c-3.48 6-16.61 30.11-18.2 69.24-1 22.21 5.67 45.22 8.85 54.73v.2c2 5.6 9.75 24.71 22.38 40.82A167.53 167.53 0 00115 470.66v-.2l.2.2c39.91 27.12 84.16 25.34 84.16 25.34 7.66-.31 33.32 0 62.46-13.81 32.32-15.31 50.72-38.12 50.72-38.12a158.46 158.46 0 0027.64-45.93c7.46-19.61 9.95-43.13 9.95-52.53V176.49c1 .6 14.32 9.41 14.32 9.41s19.19 12.3 49.13 20.31c21.48 5.7 50.42 6.9 50.42 6.9v-81.84c-10.14 1.1-30.73-2.1-51.81-12.61z"></path>
  </symbol>
  <symbol xmlns="http://www.w3.org/2000/svg" viewBox="0 0 512 512" id="pricetag">
    <title>Pricetag</title>
    <path fill="currentColor" d="M467 45.2A44.45 44.45 0 00435.29 32H312.36a30.63 30.63 0 00-21.52 8.89L45.09 286.59a44.82 44.82 0 000 63.32l117 117a44.83 44.83 0 0063.34 0l245.65-245.6A30.6 30.6 0 00480 199.8v-123a44.24 44.24 0 00-13-31.6zM384 160a32 32 0 1132-32 32 32 0 01-32 32z"></path>
  </symbol>
  <symbol xmlns='http://www.w3.org/2000/svg'  viewBox='0 0 512 512' id="image">
    <title>Flickr</title>
    <path fill="currentColor" d='M416 64H96a64.07 64.07 0 00-64 64v256a64.07 64.07 0 0064 64h320a64.07 64.07 0 0064-64V128a64.07 64.07 0 00-64-64zm-80 64a48 48 0 11-48 48 48.05 48.05 0 0148-48zM96 416a32 32 0 01-32-32v-67.63l94.84-84.3a48.06 48.06 0 0165.8 1.9l64.95 64.81L172.37 416zm352-32a32 32 0 01-32 32H217.63l121.42-121.42a47.72 47.72 0 0161.64-.16L448 333.84z'/>
  </symbol>
</svg>
