<?xml version="1.0" standalone="no"?>
<!DOCTYPE svg PUBLIC "-//W3C//DTD SVG 20010904//EN"
 "http://www.w3.org/TR/2001/REC-SVG-20010904/DTD/svg10.dtd">
<svg version="1.0" xmlns="http://www.w3.org/2000/svg"
 width="700.000000pt" height="700.000000pt" viewBox="0 0 700.000000 700.000000"
 preserveAspectRatio="xMidYMid meet">
<metadata>
Created by potrace 1.14, written by Peter Selinger 2001-2017
</metadata>
<g transform="translate(0.000000,700.000000) scale(0.100000,-0.100000)"
fill="#000000" stroke="none">
<path d="M0 3500 l0 -3500 3500 0 3500 0 0 3500 0 3500 -3500 0 -3500 0 0
-3500z m3260 2255 l0 -375 -235 0 -235 0 0 145 0 145 -730 0 -730 0 0 -735 0
-735 965 0 965 0 0 -235 0 -235 -1195 0 -1195 0 0 1200 0 1200 1195 0 1195 0
0 -375z m2870 -15 l0 -380 -235 0 -234 0 -3 148 -3 147 -737 3 -738 2 0 -445
0 -445 970 0 970 0 0 -225 0 -225 -970 0 -970 0 0 -295 0 -295 -235 0 -235 0
0 1195 0 1195 1210 0 1210 0 0 -380z m-4790 -2679 l0 -219 730 -621 730 -621
0 840 0 840 233 -2 232 -3 0 -1200 0 -1200 -1192 -3 -1193 -2 0 235 0 235 769
2 769 3 -750 625 c-413 344 -761 635 -774 647 l-24 22 0 314 c0 172 3 317 7
320 3 4 109 7 235 7 l228 0 0 -219z m4789 -108 l0 -328 -770 -640 -769 -640
770 -3 770 -2 0 -235 0 -235 -1195 0 -1195 0 0 1198 c0 659 3 1202 7 1205 3 4
541 7 1195 7 l1188 0 -1 -327z"/>
<path d="M4210 2214 c0 -481 3 -604 13 -598 20 13 1395 1183 1402 1194 4 7
-238 10 -704 10 l-711 0 0 -606z"/>
</g>
</svg>
